<?xml version="1.0" encoding="iso-8859-1"?>
<!-- Generator: Adobe Illustrator 19.0.0, SVG Export Plug-In . SVG Version: 6.00 Build 0)  -->
<svg version="1.1" id="Capa_1" xmlns="http://www.w3.org/2000/svg" xmlns:xlink="http://www.w3.org/1999/xlink" x="0px" y="0px"
	 viewBox="0 0 512 512" style="enable-background:new 0 0 512 512;" xml:space="preserve">
<path style="fill:#678993;" d="M0,256.001c0,50.204,14.464,97.025,39.434,136.546l216.545-146.711L256.001,0
	C114.615,0,0,114.616,0,256.001z"/>
<path style="fill:#546F7A;" d="M512,256.001c0,50.204-14.464,97.025-39.434,136.546L255.979,245.834L256.001,0
	C397.385,0,512,114.616,512,256.001z"/>
<path style="fill:#3C5156;" d="M472.566,392.545L255.843,245.834L39.434,392.545C84.785,464.322,164.819,512,256,512
	C347.181,512,427.216,464.322,472.566,392.545z"/>
<path style="fill:#FFD039;" d="M255.843,274.293l-125.11-88.687c-2.299-1.63-5.314-1.842-7.816-0.548
	c-2.503,1.293-4.076,3.875-4.076,6.692v141.455c0,2.442,1.183,4.732,3.174,6.144l129.626,91.967c1.25,0.887,2.725,1.343,4.201,1.376
	V274.293z"/>
<path style="fill:#39A4FA;" d="M389.083,185.057c-2.503-1.294-5.518-1.082-7.816,0.548l-125.424,88.687v158.409
	c1.527-0.004,3.224-0.47,4.516-1.387l129.625-91.967c1.991-1.412,3.174-3.702,3.174-6.144V191.749
	C393.159,188.932,391.586,186.35,389.083,185.057z"/>
<path style="fill:#FF434D;" d="M389.985,185.605L260.36,93.639c-2.611-1.852-6.107-1.852-8.718,0l-129.626,91.966
	c-1.991,1.412-3.174,3.703-3.174,6.144c0,2.442,1.183,4.732,3.174,6.144l129.626,91.966c1.306,0.926,2.832,1.389,4.359,1.389
	c1.527,0,3.053-0.463,4.359-1.389l129.625-91.966c1.991-1.412,3.174-3.703,3.174-6.144S391.976,187.018,389.985,185.605z"/>
<g>
</g>
<g>
</g>
<g>
</g>
<g>
</g>
<g>
</g>
<g>
</g>
<g>
</g>
<g>
</g>
<g>
</g>
<g>
</g>
<g>
</g>
<g>
</g>
<g>
</g>
<g>
</g>
<g>
</g>
</svg>
