<?xml version="1.0" encoding="iso-8859-1"?>
<!-- Generator: Adobe Illustrator 19.0.0, SVG Export Plug-In . SVG Version: 6.00 Build 0)  -->
<svg version="1.1" id="Capa_1" xmlns="http://www.w3.org/2000/svg" xmlns:xlink="http://www.w3.org/1999/xlink" x="0px" y="0px"
	 viewBox="0 0 512 512" width="32px" style="enable-background:new 0 0 512 512;" xml:space="preserve">
<circle style="fill:#497FC1;" cx="256" cy="256" r="256"/>
<path style="fill:#2D5D92;" d="M395.243,116.752C359.607,81.118,310.377,59.077,256,59.077c-54.378,0-103.609,22.042-139.245,57.678
	S59.077,201.622,59.077,256c0,54.377,22.041,103.607,57.675,139.243l115.666,115.666C240.185,511.618,248.047,512,256,512
	c141.385,0,256-114.615,256-256c0-7.953-0.382-15.815-1.092-23.583L395.243,116.752z"/>
<g>
	<path style="fill:#FFFFFF;" d="M130.679,130.679C164.153,97.204,208.66,78.769,256,78.769s91.847,18.435,125.321,51.91
		s51.91,77.981,51.91,125.321s-18.435,91.847-51.91,125.321c-33.474,33.475-77.981,51.91-125.321,51.91
		s-91.847-18.435-125.321-51.91S78.769,303.34,78.769,256S97.204,164.153,130.679,130.679 M116.755,116.755
		C81.119,152.391,59.077,201.622,59.077,256c0,108.758,88.165,196.923,196.923,196.923c54.378,0,103.609-22.042,139.245-57.678
		S452.923,310.378,452.923,256c0-108.758-88.165-196.923-196.923-196.923C201.622,59.077,152.391,81.119,116.755,116.755
		L116.755,116.755z"/>

		<rect x="177.501" y="168.728" transform="matrix(-0.8515 -0.5243 0.5243 -0.8515 231.3927 542.2122)" style="fill:#FFFFFF;" width="29.934" height="139.23"/>
	<polygon style="fill:#FFFFFF;" points="161.946,316.445 136.455,300.748 128.026,342.981 	"/>

		<rect x="226.52" y="147.627" transform="matrix(-0.8515 -0.5243 0.5243 -0.8515 363.891 420.5247)" style="fill:#FFFFFF;" width="29.934" height="22.224"/>
	<polygon style="fill:#FFFFFF;" points="270.355,104.034 243.935,118.11 324.465,267.95 350.884,253.874 	"/>

		<rect x="333.949" y="270.879" transform="matrix(-0.8826 0.4702 -0.4702 -0.8826 789.4492 366.8143)" style="fill:#FFFFFF;" width="29.936" height="22.226"/>
	<path style="fill:#FFFFFF;" d="M347.998,309.935c-0.129,2.809,0.454,5.686,1.873,8.349c6.056,11.368,20.68,7.456,28.075,24.698
		c6.647-7.122,4.754-32.042,0.544-39.945c-1.418-2.662-3.482-4.751-5.884-6.211L347.998,309.935z"/>
	<polygon style="fill:#FFFFFF;" points="158.725,240.718 114.788,240.718 114.788,270.788 140.207,270.788 	"/>
	<polygon style="fill:#FFFFFF;" points="295.623,240.718 223.273,240.718 204.756,270.788 311.784,270.788 	"/>
	<polygon style="fill:#FFFFFF;" points="358.021,240.718 361.907,247.95 367.853,259.013 367.813,259.035 367.928,259.251
		374.075,270.788 397.212,270.788 397.212,240.718 	"/>
</g>
<g>
</g>
<g>
</g>
<g>
</g>
<g>
</g>
<g>
</g>
<g>
</g>
<g>
</g>
<g>
</g>
<g>
</g>
<g>
</g>
<g>
</g>
<g>
</g>
<g>
</g>
<g>
</g>
<g>
</g>
</svg>
