<?xml version="1.0" encoding="iso-8859-1"?>
<!-- Generator: Adobe Illustrator 19.0.0, SVG Export Plug-In . SVG Version: 6.00 Build 0)  -->
<svg xmlns="http://www.w3.org/2000/svg" xmlns:xlink="http://www.w3.org/1999/xlink" version="1.1" id="Capa_1" x="0px" y="0px" viewBox="0 0 512 512" style="enable-background:new 0 0 512 512;" xml:space="preserve">
<g>
	<g>
		<path d="M497,50H15C6.716,50,0,56.716,0,65v311.289c0,3.978,1.58,7.793,4.394,10.606l70.711,70.711    c2.813,2.813,6.628,4.394,10.606,4.394h340.578c3.979,0,7.794-1.581,10.606-4.394l70.711-70.711    c2.813-2.813,4.394-6.628,4.394-10.606V65C512,56.716,505.284,50,497,50z M482,370.076L420.076,432H91.924L30,370.076V80h452    V370.076z"/>
	</g>
</g>
<g>
	<g>
		<path d="M427,200H307c-8.284,0-15,6.716-15,15v120c0,8.284,6.716,15,15,15h120c8.284,0,15-6.716,15-15V215    C442,206.716,435.284,200,427,200z M412,320h-90v-90h90V320z"/>
	</g>
</g>
<g>
	<g>
		<path d="M205,260h-45v-45c0-8.284-6.716-15-15-15s-15,6.716-15,15v45H85c-8.284,0-15,6.716-15,15s6.716,15,15,15h45v45    c0,8.284,6.716,15,15,15s15-6.716,15-15v-45h45c8.284,0,15-6.716,15-15S213.284,260,205,260z"/>
	</g>
</g>
<g>
	<g>
		<circle cx="327" cy="155" r="20" />
	</g>
</g>
<g>
	<g>
		<circle cx="407" cy="155" r="20" />
	</g>
</g>
<g>
</g>
<g>
</g>
<g>
</g>
<g>
</g>
<g>
</g>
<g>
</g>
<g>
</g>
<g>
</g>
<g>
</g>
<g>
</g>
<g>
</g>
<g>
</g>
<g>
</g>
<g>
</g>
<g>
</g>
</svg>
