<?xml version="1.0" standalone="no"?>
<!DOCTYPE svg PUBLIC "-//W3C//DTD SVG 20010904//EN"
 "http://www.w3.org/TR/2001/REC-SVG-20010904/DTD/svg10.dtd">
<svg version="1.0" xmlns="http://www.w3.org/2000/svg"
 width="32px" height="32px" viewBox="0 0 751.000000 751.000000"
 preserveAspectRatio="xMidYMid meet">
<metadata>
Created by potrace 1.15, written by Peter Selinger 2001-2017
</metadata>
<g transform="translate(0.000000,751.000000) scale(0.100000,-0.100000)"
 stroke="none" fill="rgb(255, 152, 54)">
<path d="M3575 7504 c-395 -30 -653 -77 -962 -175 -440 -141 -841 -357 -1213
-653 -160 -128 -438 -406 -566 -566 -464 -582 -737 -1250 -815 -1995 -16 -155
-16 -565 0 -720 78 -744 351 -1413 815 -1995 128 -160 406 -438 566 -566 524
-418 1099 -673 1766 -784 245 -41 439 -54 689 -47 232 7 330 17 542 52 915
154 1747 655 2325 1397 428 548 694 1221 769 1943 16 155 16 565 0 720 -78
746 -351 1413 -819 1999 -124 155 -403 434 -558 558 -584 466 -1265 746 -1994
818 -113 11 -463 20 -545 14z m-51 -1768 c316 -81 554 -317 648 -643 19 -65
23 -103 23 -230 0 -83 -3 -154 -6 -158 -4 -3 -32 4 -63 17 l-56 23 -4 130 c-4
149 -18 211 -76 330 -126 259 -393 425 -682 425 -131 0 -221 -21 -347 -82 -90
-43 -116 -62 -191 -136 -137 -137 -206 -277 -230 -465 -34 -273 104 -565 339
-721 133 -88 226 -116 406 -123 l141 -5 22 -55 c13 -31 20 -58 17 -62 -4 -3
-77 -6 -163 -6 -134 0 -169 3 -237 23 -173 50 -352 167 -462 303 -71 85 -147
242 -174 354 -31 125 -31 296 0 420 72 295 301 548 581 640 100 33 164 43 291
44 104 1 144 -3 223 -23z m-109 -431 c127 -34 238 -123 294 -237 29 -60 58
-174 47 -185 -3 -3 -33 6 -67 19 -59 24 -63 28 -82 78 -28 77 -114 161 -192
190 -116 43 -253 13 -341 -75 -60 -60 -88 -125 -92 -215 -5 -99 22 -172 86
-238 44 -45 124 -92 156 -92 15 0 73 -126 62 -137 -3 -4 -33 -2 -65 4 -215 40
-371 228 -371 448 0 297 279 514 565 440z m610 -720 c406 -167 740 -307 743
-310 4 -3 -67 -79 -156 -168 l-162 -162 352 -352 353 -353 -110 -110 c-60 -60
-114 -110 -120 -110 -5 0 -166 156 -357 347 l-348 348 -160 -160 c-96 -96
-163 -156 -168 -150 -7 8 -578 1389 -608 1468 -3 9 -4 17 -2 17 3 0 337 -137
743 -305z m1541 -1766 c205 -28 338 -137 397 -323 19 -60 22 -93 21 -216 0
-124 -3 -154 -23 -209 -75 -214 -237 -321 -486 -321 -329 0 -525 200 -525 535
0 203 81 368 225 460 116 74 233 96 391 74z m-3442 -34 c185 -39 318 -154 375
-323 26 -76 29 -238 6 -327 -35 -132 -125 -245 -239 -299 -106 -50 -160 -58
-463 -63 l-283 -5 0 106 0 106 45 0 45 0 0 310 0 310 -45 0 -45 0 0 100 0 100
268 0 c196 0 285 -4 336 -15z m1328 -150 l-3 -165 -124 0 -125 0 0 65 0 65
-115 0 -115 0 0 -95 0 -94 138 -3 137 -3 3 -97 3 -98 -141 0 -140 0 0 -120 0
-121 113 3 112 3 3 68 3 67 124 0 125 0 0 -170 0 -170 -440 0 -440 0 0 100 0
100 45 0 45 0 0 315 0 315 -45 0 -45 0 0 100 0 100 443 0 442 0 -3 -165z m638
148 c1 -10 31 -130 69 -267 l67 -249 42 159 c22 87 53 207 68 267 l28 107 283
0 283 0 0 -94 0 -95 -42 -3 -43 -3 -3 -317 -2 -318 45 0 46 0 -3 -97 -3 -98
-232 -3 -233 -2 0 100 0 100 40 0 40 0 -1 273 0 272 -25 -105 c-13 -58 -57
-224 -97 -370 l-72 -265 -149 -3 c-82 -1 -153 1 -157 5 -10 10 -167 566 -184
653 -12 60 -13 46 -14 -197 l-1 -263 40 0 40 0 0 -100 0 -100 -197 2 -198 3
-3 98 -3 97 41 0 40 0 0 320 0 320 -40 0 -40 0 0 95 0 95 285 0 c265 0 285 -1
285 -17z"/>
<path d="M5425 2586 c-131 -58 -147 -466 -23 -571 42 -36 72 -40 115 -18 64
34 103 145 103 294 0 78 -23 190 -47 232 -36 60 -96 86 -148 63z"/>
<path d="M1912 2288 l3 -313 52 1 c82 2 134 38 174 119 28 57 33 79 37 166 6
127 -14 209 -66 270 -43 50 -84 69 -152 69 l-50 0 2 -312z"/>
</g>
</svg>
