<?xml version="1.0" encoding="iso-8859-1"?>
<!-- Generator: Adobe Illustrator 19.0.0, SVG Export Plug-In . SVG Version: 6.00 Build 0)  -->
<svg xmlns="http://www.w3.org/2000/svg" xmlns:xlink="http://www.w3.org/1999/xlink" version="1.1" id="Capa_1" x="0px" y="0px" viewBox="0 0 60.017 60.017" style="enable-background:new 0 0 60.017 60.017;" xml:space="preserve" width="512px" height="512px">
<path d="M59.144,3.718l-2.85-2.851c-1.127-1.125-3.093-1.126-4.221,0.001l-3.126,3.126H0v56h56V11.083l0.305-0.305l0,0l2.839-2.839  C60.308,6.775,60.308,4.882,59.144,3.718z M20.047,36.745l3.22,3.22l-4.428,1.208L20.047,36.745z M52.062,12.193L47.82,7.95  l1.414-1.414l4.243,4.242L52.062,12.193z M50.648,13.607L25.192,39.062L20.95,34.82L46.406,9.364L50.648,13.607z M57.73,6.525  l-2.839,2.839l-4.243-4.243l2.839-2.839c0.371-0.371,1.021-0.371,1.393,0l2.85,2.85C58.114,5.516,58.114,6.141,57.73,6.525z" fill="#FFFFFF"/>
<g>
</g>
<g>
</g>
<g>
</g>
<g>
</g>
<g>
</g>
<g>
</g>
<g>
</g>
<g>
</g>
<g>
</g>
<g>
</g>
<g>
</g>
<g>
</g>
<g>
</g>
<g>
</g>
<g>
</g>
</svg>
