<?xml version="1.0" encoding="iso-8859-1"?>
<!-- Generator: Adobe Illustrator 16.0.0, SVG Export Plug-In . SVG Version: 6.00 Build 0)  -->
<!DOCTYPE svg PUBLIC "-//W3C//DTD SVG 1.1//EN" "http://www.w3.org/Graphics/SVG/1.1/DTD/svg11.dtd">
<svg version="1.1" id="Capa_1" xmlns="http://www.w3.org/2000/svg" xmlns:xlink="http://www.w3.org/1999/xlink" x="0px" y="0px"
	 viewBox="0 0 564.452 564.452" style="enable-background:new 0 0 564.452 564.452;"
	 xml:space="preserve">
<g>
	<g>
		<path d="M282.221,0.002C126.356,0.002,0,126.359,0,282.226c0,155.872,126.356,282.224,282.221,282.224
			c155.869,0,282.231-126.352,282.231-282.224C564.452,126.359,438.09,0.002,282.221,0.002z M282.221,531.594
			c-137.502,0-249.368-111.863-249.368-249.368c0-137.5,111.871-249.365,249.368-249.365s249.365,111.871,249.365,249.365
			C531.586,419.73,419.718,531.594,282.221,531.594z"/>
		<path d="M420.199,167.14c3.227-0.044,6.623-1.693,10.175-4.953c3.512-3.218,5.428-6.39,5.748-9.512
			c0.321-3.125-0.684-5.96-3.023-8.51c-2.341-2.55-5.096-3.809-8.275-3.765c-3.179,0.042-6.534,1.67-10.061,4.904
			c-3.475,3.182-5.37,6.39-5.691,9.634c-0.331,3.242,0.643,6.097,2.9,8.565C414.229,165.977,416.974,167.191,420.199,167.14z"/>
		<path d="M282.221,166.013c50.525,0,93.504,32.259,109.505,77.299h130.509
			C503.552,127.685,403.044,39.084,282.221,39.084c-120.826,0-221.333,88.6-240.019,204.228h130.506
			C188.712,198.272,231.688,166.013,282.221,166.013z M457.674,163.877l4.028,7.112l-15.772,28.487l24.15-13.678l3.853,6.78
			l-36.174,20.487l-4.153-7.332l15.338-27.943l-23.592,13.362l-3.842-6.781L457.674,163.877z M417.854,133.313
			c2.206-0.735,4.475-1.064,6.825-0.997c2.341,0.07,4.474,0.552,6.39,1.437c2.558,1.178,4.971,3.003,7.26,5.5
			c4.132,4.522,6.048,9.419,5.728,14.698c-0.321,5.271-2.973,10.204-7.965,14.768c-4.95,4.533-10.056,6.739-15.327,6.602
			c-5.25-0.127-9.941-2.452-14.063-6.957c-4.179-4.557-6.105-9.456-5.789-14.693c0.321-5.24,2.92-10.097,7.798-14.561
			C411.837,136.257,414.882,134.323,417.854,133.313z M403.604,108.919l-3.594,6.043l-19.278-11.479l-4.706,7.912l17.927,10.69
			l-3.584,6.017l-17.937-10.69l-5.779,9.725l19.946,11.889l-3.594,6.02l-27.154-16.189l21.272-35.716L403.604,108.919z
			 M327.444,75.163l11.972,3.824l-1.439,29.305l15.735-24.741l11.993,3.829l-12.646,39.607l-7.42-2.369l9.952-31.185L337.774,122.1
			l-7.7-2.455l2.112-33.681l-9.941,31.172l-7.426-2.372L327.444,75.163z M256.027,72.02l7.257,28.319l6.597-28.809l9.978-0.35
			l8.298,28.77l5.359-29.246l8.451-0.292l-8.638,41.898l-8.898,0.313l-9.364-30.776l-7.169,31.354l-9.093,0.319l-11.379-41.205
			L256.027,72.02z M205.717,95.87c0.271-2.302,0.945-4.497,2.009-6.586c1.062-2.094,2.413-3.814,4.031-5.166
			c2.151-1.817,4.847-3.218,8.07-4.22c5.854-1.815,11.107-1.437,15.736,1.108c4.629,2.54,7.953,7.052,9.947,13.515
			c1.983,6.41,1.794,11.975-0.572,16.671c-2.369,4.699-6.473,7.948-12.301,9.75c-5.903,1.831-11.156,1.481-15.765-1.043
			c-4.599-2.535-7.868-6.957-9.831-13.277C205.792,102.565,205.356,98.993,205.717,95.87z M175.37,100.624l16.687,29.885
			l18.225-10.175l3.42,6.113l-25.551,14.271l-20.102-36.003L175.37,100.624z M124.542,218.727l-37.218-18.533l12.704-25.515
			l6.299,3.138l-8.966,18.002l8.813,4.386l7.736-15.542l6.299,3.141l-7.741,15.534l15.812,7.881L124.542,218.727z M150.207,177.164
			c-3.85,4.836-8.389,7.508-13.608,8.019c-5.222,0.51-10.424-1.3-15.599-5.414c-3.314-2.641-5.699-5.344-7.164-8.129
			c-1.064-2.061-1.748-4.251-2.051-6.574c-0.303-2.327-0.16-4.508,0.415-6.537c0.756-2.711,2.183-5.388,4.298-8.039
			c3.814-4.79,8.357-7.441,13.619-7.954c5.258-0.515,10.54,1.342,15.832,5.557c5.25,4.179,8.223,8.875,8.924,14.09
			C155.562,167.388,154.008,172.382,150.207,177.164z M137.787,128.334l6.47-5.344l21.797,26.39l16.094-13.297l4.458,5.396
			l-22.561,18.648L137.787,128.334z"/>
		<path d="M221.502,113.059c2.794,1.675,5.789,2.025,8.981,1.033c3.203-0.989,5.468-2.951,6.81-5.885
			c1.336-2.938,1.294-6.708-0.122-11.314c-1.411-4.544-3.456-7.64-6.151-9.258c-2.683-1.629-5.678-1.924-8.987-0.906
			c-3.304,1.018-5.616,2.979-6.941,5.869c-1.326,2.89-1.274,6.623,0.132,11.188C216.614,108.292,218.708,111.384,221.502,113.059z"
			/>
		<path d="M140.392,154.746c-3.723-2.967-7.159-4.363-10.292-4.189c-3.13,0.176-5.776,1.618-7.933,4.329
			c-2.154,2.703-2.964,5.626-2.423,8.759s2.677,6.188,6.426,9.168c3.679,2.931,7.153,4.306,10.403,4.109
			c3.252-0.184,5.924-1.59,8.008-4.205c2.095-2.62,2.858-5.52,2.312-8.701C146.347,160.835,144.172,157.754,140.392,154.746z"/>
		<path d="M304.019,449.588c1.543-0.353,2.713-1.025,3.51-2.02c0.798-1,1.119-2.227,0.964-3.687
			c-0.155-1.398-0.663-2.496-1.533-3.283c-0.87-0.798-2.071-1.201-3.614-1.212c-0.922-0.01-3.531,0.218-7.84,0.694l-5.25,0.564
			l1.149,10.475l5.985-0.652C300.963,450.085,303.169,449.784,304.019,449.588z"/>
		<polygon points="174.555,424.479 180.318,407.406 164.905,416.665 		"/>
		<path d="M307.788,457.608c-1.295-0.29-4.019-0.218-8.182,0.238l-7.384,0.813l1.325,12.106l8.461-0.922
			c3.293-0.362,5.375-0.684,6.245-0.969c1.325-0.394,2.371-1.118,3.117-2.175c0.756-1.041,1.035-2.366,0.864-3.977
			c-0.149-1.367-0.605-2.485-1.361-3.355C310.107,458.489,309.082,457.914,307.788,457.608z"/>
		<path d="M282.221,398.434c-50.528,0-93.509-32.266-109.507-77.305H42.202
			c18.68,115.643,119.192,204.24,240.019,204.24c120.823,0,221.331-88.598,240.014-204.24H391.726
			C375.725,366.168,332.746,398.434,282.221,398.434z M124.016,398.552l-5.642-7.259l35.941-27.973l19.177,24.638l-6.077,4.732
			l-13.53-17.378l-8.51,6.618l11.682,15.006l-6.076,4.738l-11.682-15.007L124.016,398.552z M176.367,449.143l-7.768-6.292
			l3.42-10.548l-14.147-11.453l-9.432,5.675l-7.583-6.142l42.46-24.233l7.553,6.131L176.367,449.143z M234.955,439.733l-9.217-1.626
			c0.445-2.382,0.155-4.535-0.857-6.478c-1.025-1.932-2.664-3.387-4.901-4.354c-3.106-1.352-6.097-1.326-8.986,0.062
			c-2.895,1.393-5.414,4.562-7.583,9.548c-2.296,5.282-2.975,9.455-2.05,12.521c0.932,3.065,2.91,5.262,5.947,6.571
			c2.245,0.979,4.482,1.098,6.719,0.373c2.227-0.726,4.36-2.465,6.395-5.215l7.058,6.146c-3.233,4.023-6.791,6.499-10.675,7.446
			c-3.875,0.942-8.052,0.445-12.533-1.502c-5.551-2.412-9.29-6.286-11.216-11.625c-1.924-5.333-1.458-11.288,1.39-17.864
			c3.021-6.964,7.164-11.583,12.417-13.867c5.271-2.288,10.822-2.159,16.676,0.384c5.108,2.216,8.606,5.52,10.493,9.932
			C235.139,432.801,235.447,435.984,234.955,439.733z M275.347,441.494l-24.288-3.738l-1.532,9.988l22.597,3.465l-1.16,7.596
			l-22.605-3.479l-1.877,12.251l25.145,3.863l-1.163,7.597l-34.248-5.262l6.931-45.013l33.373,5.126L275.347,441.494z
			 M320.95,468.291c-0.75,2.051-1.879,3.749-3.412,5.085c-1.533,1.347-3.495,2.289-5.897,2.812
			c-1.502,0.337-5.173,0.839-10.988,1.522l-15.41,1.673l-4.948-45.277l18.1-1.973c3.583-0.395,6.271-0.534,8.062-0.425
			c1.797,0.108,3.433,0.554,4.935,1.346c1.491,0.793,2.786,1.932,3.884,3.413c1.098,1.471,1.755,3.189,1.968,5.146
			c0.228,2.118-0.125,4.133-1.077,6.027c-0.953,1.896-2.351,3.387-4.215,4.484c2.848,0.508,5.121,1.646,6.814,3.418
			c1.688,1.775,2.682,3.966,2.972,6.586C321.96,464.18,321.696,466.235,320.95,468.291z M369.479,452.705
			c-2.123,5.354-6.281,9.3-12.469,11.837c-6.275,2.563-12.034,2.703-17.305,0.389c-5.262-2.31-9.27-6.81-12.029-13.515
			c-1.761-4.304-2.584-8.172-2.512-11.604c0.089-2.542,0.602-5.007,1.564-7.395c0.958-2.387,2.252-4.391,3.883-6.027
			c2.176-2.185,4.977-3.987,8.41-5.385c6.203-2.548,11.961-2.662,17.264-0.337c5.312,2.325,9.377,6.907,12.179,13.773
			C371.271,441.256,371.603,447.341,369.479,452.705z M400.476,376.203l16.55,11.615l-5.883-26.823l7.095-10.128l4.681,24.229
			l33.15,1.165l-6.835,9.745l-24.689-2.03l1.947,10.48l11.268,7.902l-5.271,7.528l-37.293-26.165L400.476,376.203z M408.502,403.398
			c4.619,5.728,6.67,11.465,6.162,17.202c-0.518,5.748-3.366,10.708-8.585,14.902c-5.271,4.257-10.761,6.018-16.467,5.313
			c-5.706-0.715-10.832-3.895-15.374-9.538c-2.915-3.614-4.815-7.084-5.706-10.408c-0.647-2.455-0.85-4.961-0.611-7.519
			c0.244-2.559,0.917-4.857,2.015-6.887c1.455-2.719,3.63-5.24,6.514-7.561c5.22-4.221,10.719-5.955,16.456-5.24
			C398.653,394.379,403.857,397.62,408.502,403.398z"/>
		<path  d="M351.988,428.357c-3.086-1.512-6.39-1.543-9.891-0.114c-3.511,1.44-5.841,3.801-7.001,7.084
			c-1.159,3.293-0.756,7.363,1.243,12.21c1.947,4.764,4.536,7.933,7.746,9.497c3.222,1.553,6.52,1.642,9.911,0.248
			c3.387-1.397,5.676-3.749,6.846-7.083c1.17-3.346,0.756-7.452-1.243-12.335C357.622,433.028,355.085,429.859,351.988,428.357z"/>
		<path  d="M381.452,404.963c-2.957,2.382-4.526,5.312-4.702,8.782c-0.176,3.475,1.388,7.27,4.671,11.351
			c3.23,4.018,6.612,6.307,10.139,6.887c3.521,0.58,6.711-0.28,9.569-2.579c2.858-2.294,4.37-5.204,4.546-8.735
			c0.176-3.542-1.398-7.358-4.712-11.475c-3.272-4.064-6.607-6.38-9.994-6.944C387.572,401.68,384.403,402.586,381.452,404.963z"/>
		<polygon  points="458.274,304.74 467.605,314.076 476.926,304.74 490.12,304.74 490.12,291.552
			499.45,282.221 490.12,272.895 490.12,259.701 476.926,259.701 467.605,250.37 458.274,259.701 445.08,259.701 445.08,272.895
			435.749,282.221 445.08,291.552 445.08,304.74 		"/>
		<polygon  points="83.792,304.74 93.126,314.076 102.441,304.74 115.641,304.74 115.641,291.552
			124.966,282.221 115.641,272.895 115.641,259.701 102.441,259.701 93.126,250.37 83.792,259.701 70.601,259.701 70.601,272.895
			61.268,282.221 70.601,291.552 70.601,304.74 		"/>
		<path  d="M295.992,375.178c0,0,0-51.253,0-92.885h26.056l3.366-32.819h-29.422v-19.296
			c0-7.247,4.805-8.94,8.181-8.94c3.377,0,20.765,0,20.765,0v-31.856l-28.599-0.111c-31.739,0-38.965,23.755-38.965,38.968v21.236
			h-18.356v32.819h18.356c0,42.129,0,92.885,0,92.885H295.992z"/>
	</g>
</g>
<g>
</g>
<g>
</g>
<g>
</g>
<g>
</g>
<g>
</g>
<g>
</g>
<g>
</g>
<g>
</g>
<g>
</g>
<g>
</g>
<g>
</g>
<g>
</g>
<g>
</g>
<g>
</g>
<g>
</g>
</svg>
