<?xml version="1.0" ?><!DOCTYPE svg  PUBLIC '-//W3C//DTD SVG 1.1//EN'  'http://www.w3.org/Graphics/SVG/1.1/DTD/svg11.dtd'><svg enable-background="new 0 0 24 24" height="32px" id="Layer_1" version="1.1" viewBox="0 0 24 24" width="32px" xml:space="preserve" xmlns="http://www.w3.org/2000/svg" xmlns:xlink="http://www.w3.org/1999/xlink"><g id="icon"><circle cx="12" cy="12" fill="#0173B2" r="11"/><path d="M8.0989,5.8956c-0.8304,0,-1.3752,0.5449,-1.3752,1.2615c0,0.7009,0.5264,1.2502,1.3411,1.2502h0.0113c0.8466,0,1.3752,-0.5493,1.3752,-1.2502C9.4356,6.4404,8.9294,5.8956,8.0989,5.8956L8.0989,5.8956zM15.259,9.2483c-1.2928,0,-1.8604,0.7069,-2.1821,1.2047v0.0227h-0.0227c0.004,-0.0062,0.0187,-0.0164,0.0227,-0.0227V9.4188h-2.4322c0.0319,0.6851,0,7.2965,0,7.2965h2.4322v-4.0801c0,-0.2182,0.0153,-0.435,0.0796,-0.591c0.1754,-0.436,0.5684,-0.8865,1.2388,-0.8865c0.8782,0,1.2388,0.6665,1.2388,1.648v3.9096h2.4208v-4.1824C18.0549,10.2903,16.8556,9.2483,15.259,9.2483zM6.8715,9.4188v7.2965h2.4322V9.4188H6.8715z" fill="#FFFFFF"/><path d="M4.2218,19.7782C6.2124,21.7688,8.9624,23,12,23c6.0751,0,11,-4.9249,11,-11c0,-3.0376,-1.2312,-5.7876,-3.2218,-7.7782L4.2218,19.7782z" fill="#231F20" opacity="0.1"/></g></svg>
