<?xml version="1.0" encoding="iso-8859-1"?>
<!-- Generator: Adobe Illustrator 19.0.0, SVG Export Plug-In . SVG Version: 6.00 Build 0)  -->
<svg xmlns="http://www.w3.org/2000/svg" xmlns:xlink="http://www.w3.org/1999/xlink" version="1.1" id="Layer_1" x="0px" y="0px" viewBox="0 0 512 512" style="enable-background:new 0 0 512 512;" xml:space="preserve">
<g>
	<g>
		<path d="M461.913,55.652c-23.108,0-42.599,15.733-48.354,37.045L95.587,185.012c-7.936-17.208-25.341-29.186-45.5-29.186    C22.469,155.826,0,178.295,0,205.913v100.174c0,27.618,22.469,50.087,50.087,50.087c20.159,0,37.564-11.979,45.5-29.186    l37.978,11.026v30.047c0,22.289,14.344,41.569,35.694,47.976l100.174,30.052c4.807,1.443,9.695,2.153,14.539,2.153    c10.585,0,20.95-3.394,29.753-9.943c12.83-9.548,20.188-24.194,20.188-40.185v-1.933l79.646,23.123    c5.754,21.313,25.246,37.045,48.354,37.045c27.618,0,50.087-22.469,50.087-50.087V105.739    C512,78.121,489.531,55.652,461.913,55.652z M66.783,306.087c0,9.206-7.49,16.696-16.696,16.696s-16.696-7.49-16.696-16.696    V205.913c0-9.206,7.49-16.696,16.696-16.696s16.696,7.49,16.696,16.696V306.087z M300.522,398.112    c0,5.33-2.453,10.213-6.729,13.394c-4.277,3.182-9.659,4.128-14.765,2.598l-100.173-30.052    c-7.117-2.136-11.898-8.562-11.898-15.992v-20.352l133.565,38.777V398.112z M411.826,384.029l-89.631-26.022    c-0.014-0.004-0.029-0.008-0.043-0.012l-221.978-64.446v-75.097l311.652-90.479V384.029z M478.609,406.261    c0,9.206-7.49,16.696-16.696,16.696s-16.696-7.49-16.696-16.696V105.739c0-9.206,7.49-16.696,16.696-16.696    s16.696,7.49,16.696,16.696V406.261z" fill="#FFFFFF"/>
	</g>
</g>
<g>
</g>
<g>
</g>
<g>
</g>
<g>
</g>
<g>
</g>
<g>
</g>
<g>
</g>
<g>
</g>
<g>
</g>
<g>
</g>
<g>
</g>
<g>
</g>
<g>
</g>
<g>
</g>
<g>
</g>
</svg>
