<?xml version="1.0" encoding="iso-8859-1"?>
<!-- Generator: Adobe Illustrator 16.0.0, SVG Export Plug-In . SVG Version: 6.00 Build 0)  -->
<!DOCTYPE svg PUBLIC "-//W3C//DTD SVG 1.1//EN" "http://www.w3.org/Graphics/SVG/1.1/DTD/svg11.dtd">
<svg xmlns="http://www.w3.org/2000/svg" xmlns:xlink="http://www.w3.org/1999/xlink" version="1.1" id="Capa_1" x="0px" y="0px" width="512px" height="512px" viewBox="0 0 280.263 280.263" style="enable-background:new 0 0 280.263 280.263;" xml:space="preserve">
<g>
	<path d="M237.629,208.548h-14.85c-16.536-12.935-35.543-48.672-52.64-98.968   c17.726-10.556,28.928-29.902,28.928-50.642C199.067,26.443,172.621,0,140.128,0C107.633,0,81.19,26.443,81.19,58.938   c0,20.733,11.196,40.081,28.913,50.636c-17.074,50.278-36.075,86.017-52.64,98.974H42.628H6.765v71.715h266.733v-71.715H237.629z    M92.9,58.938c0-26.045,21.183-47.228,47.228-47.228c26.042,0,47.228,21.182,47.228,47.228c0,17.606-10.138,33.914-25.857,41.965   h-42.747C103.036,92.852,92.9,76.544,92.9,58.938z M121.416,112.613h37.413c15.05,44.449,31.438,77.625,47.276,95.935H74.14   C89.99,190.228,106.378,157.051,121.416,112.613z M261.788,268.552H18.475v-48.294h24.153h18.635h157.72h18.652h24.159v48.294   H261.788z" />
</g>
<g>
</g>
<g>
</g>
<g>
</g>
<g>
</g>
<g>
</g>
<g>
</g>
<g>
</g>
<g>
</g>
<g>
</g>
<g>
</g>
<g>
</g>
<g>
</g>
<g>
</g>
<g>
</g>
<g>
</g>
</svg>
