<?xml version="1.0" encoding="utf-8"?>
<!-- Generator: Adobe Illustrator 16.0.0, SVG Export Plug-In . SVG Version: 6.00 Build 0)  -->
<!DOCTYPE svg PUBLIC "-//W3C//DTD SVG 1.1//EN" "http://www.w3.org/Graphics/SVG/1.1/DTD/svg11.dtd">
<svg version="1.1" id="Layer_1" xmlns="http://www.w3.org/2000/svg" xmlns:xlink="http://www.w3.org/1999/xlink" x="0px" y="0px"
	 width="300" height="300" viewBox="0 0 708.66 708.66" enable-background="new 0 0 708.66 708.66" xml:space="preserve">
<polyline fill="#CFDCE5" points="616.767,181.486 666.264,181.486 666.264,542.888 44.026,542.888 44.026,181.486 93.523,181.486
	"/>
<g>
	<polyline fill="#DCE8EF" points="161.873,205.056 227.869,542.888 44.026,542.888 110.021,205.056 	"/>
	<polyline fill="#DCE8EF" points="600.269,205.056 666.264,542.888 482.42,542.888 548.416,205.056 	"/>
	<polyline fill="#DCE8EF" points="381.071,205.056 447.067,542.888 263.223,542.888 329.218,205.056 	"/>
</g>
<g>
	<path fill="#FCD577" d="M178.372,205.056h-84.85V184.07c0-10.105,8.191-18.298,18.298-18.298h48.257
		c10.105,0,18.298,8.191,18.298,18.298v20.984h-0.003V205.056z"/>
	<path fill="#FCD577" d="M397.57,205.056h-84.85V184.07c0-10.105,8.191-18.298,18.298-18.298h48.257
		c10.105,0,18.298,8.191,18.298,18.298v20.984h-0.003V205.056z"/>
	<path fill="#FCD577" d="M616.767,205.056h-84.851V184.07c0-10.105,8.19-18.298,18.298-18.298h48.256
		c10.105,0,18.298,8.191,18.298,18.298v20.984h-0.001V205.056z"/>
</g>
<path d="M665.445,554.672c6.508,0,11.784-5.276,11.784-11.784V250.624c0.001-6.508-5.275-11.784-11.784-11.784
	s-11.784,5.276-11.784,11.784v280.478H139.057c-6.508,0-11.784,5.277-11.784,11.785s5.276,11.783,11.784,11.783"/>
<path d="M665.445,169.702h-41.372c-5.106-9.353-15.034-15.714-26.42-15.714h-48.257c-11.386,0-21.313,6.361-26.42,15.714H404.874
	c-5.105-9.353-15.033-15.714-26.419-15.714h-48.257c-11.386,0-21.314,6.361-26.42,15.714H185.678
	c-5.106-9.353-15.034-15.714-26.42-15.714h-48.257c-11.387,0-21.313,6.361-26.421,15.714H43.207
	c-6.508,0-11.784,5.276-11.784,11.784v361.401c0,6.508,5.276,11.784,11.784,11.784h53.426c6.508,0,11.784-5.276,11.784-11.784
	s-5.276-11.784-11.784-11.784H54.992V193.271h25.927v11.784c0,6.508,5.276,11.784,11.784,11.784h84.851
	c6.508,0,11.784-5.276,11.784-11.784v-11.784h110.776v11.784c0,6.508,5.276,11.784,11.784,11.784h84.852
	c6.508,0,11.784-5.276,11.784-11.784v-11.784h110.776v11.784c0,6.508,5.276,11.784,11.784,11.784h84.852
	c6.508,0,11.784-5.276,11.784-11.784v-11.784h25.927v18.069c0,6.508,5.276,11.784,11.784,11.784s11.784-5.276,11.784-11.784v-29.855
	C677.23,174.978,671.953,169.702,665.445,169.702z M165.769,193.271h-61.281v-9.2c0-3.59,2.92-6.514,6.514-6.514h48.257
	c3.59,0,6.514,2.92,6.514,6.514v9.2H165.769z M384.966,193.271h-61.281v-9.2c0-3.59,2.92-6.514,6.514-6.514h48.257
	c3.59,0,6.514,2.92,6.514,6.514v9.2H384.966z M604.164,193.271h-61.281v-9.2c0-3.59,2.921-6.514,6.514-6.514h48.257
	c3.591,0,6.514,2.92,6.514,6.514v9.2H604.164z"/>
</svg>
