<?xml version="1.0" ?><svg enable-background="new 0 0 1080 1080" id="katman_1" version="1.1" viewBox="0 0 1080 1080"  xml:space="preserve" xmlns="http://www.w3.org/2000/svg" xmlns:xlink="http://www.w3.org/1999/xlink"><g><path d="M190,892.1c-23.9-23.4-44.7-49.3-63.1-77.1c-35.7-54-59.8-112.8-72.6-176.2c-8-39.6-11.1-79.8-9-120.1   c5.7-110.1,43-208.3,113.3-293.3c68.4-82.8,155.2-137.6,259.1-165c26.2-6.9,52.8-11.2,79.8-13.5c27.3-2.4,54.6-2.9,81.8-0.6   C701.6,56.5,806.3,105,893.6,191.1c0.2,0.2,0.3,0.6,0.5,0.8c-0.4,2.1-2.2,3.3-3.6,4.7C845.1,242.1,800,288,754,332.9   c-55.8,54.4-110,110.4-165.8,164.8c-23.7,23.1-47,46.7-70.7,69.9c-1.2,1.2-2.3,2.5-3.9,3.1c-0.7,0.2-1.5,0.3-2.3,0.2   c-19.2-5-38.1-10.9-57.2-16.2c-41.2-11.5-82.3-23.7-123.5-35.3c-4.7-1.3-7.5-3.7-9.5-8.4c-11.1-26.4-31.3-41.1-59.5-43.7   c-30-2.8-53.8,8.6-69.7,34.6c-13.5,22.2-11.3,50.9,5.3,71.7c14.1,17.8,32.9,26.4,55.5,27.1c17,0.5,32.2-4.3,45.9-14.3   c3.5-2.6,6.9-2.6,10.8-1.5c35.7,10.4,71.5,20.4,107.2,30.7c13.1,3.8,26.3,7.3,39.4,11.4c0.5,0.2,0.9,0.5,1.2,1c0.1,0.5,0,1-0.3,1.4   c-2.4,1.5-4.5,3.4-6.5,5.4c-6.9,7-13.8,14-20.9,20.9C368.3,714.9,308.9,776.2,248,835.9c-18.1,17.7-35.9,35.7-54.1,53.3   C192.8,890.4,191.8,891.8,190,892.1z" fill="#353535"/><path d="M1036.8,538c0.3,16.4-0.2,32.8-1.7,49.2c-3.5,39.6-11.8,78.2-24.7,115.7c-19.2,55.8-47.6,106.5-85,152.2   c-33.6,41.1-72.9,75.9-117.5,104.6c-30.8,19.7-63.6,35.7-98,48.2c-30.3,11-61.5,18.5-93.2,23.9c-4.9,0.8-9.8,1.3-14.7,2   c-2.5-1-3.1-3.4-3.9-5.5c-7.4-20-14.5-40.1-21.7-60.1c-15.5-43.1-30.9-86.2-46.3-129.3c-10.2-28.4-20.3-56.7-30.4-85.1   c-14-39.3-28.2-78.7-42.2-118c-0.7-2.1-2.3-4.2-0.4-6.5l-0.1-0.3c2.1-1.5,4.2-0.5,6.2,0.1c33.7,9.6,67.2,19.5,100.9,28.9   c3,0.9,4.6,2.6,5.7,5.6c9.6,25.9,28,42.1,55.3,46.5c35.6,5.6,65.7-10.6,79.6-42.3c3.3-7.6,4.8-15.7,4.8-23.8c0-5,2.1-7.5,5.8-10   c25.9-16.7,51.6-33.7,77.3-50.8c1.5-1,3.1-2,4.6-3.1c5-3.7,10.5-5.8,16.8-6.8c43.3-6.8,78.4-41.8,84.2-85.5   c3.9-29-2.6-56-21.9-79.1c-1.3-1.5-2.7-3-2.6-5.2c1.9-2.2,3.3-0.4,4.6,0.7c20.2,16.8,40.5,33.6,60.6,50.5   c25.4,21.3,50.9,42.4,76.3,63.7c6.4,5.3,12.7,10.8,19.1,16C1035.5,535.4,1036.2,536.6,1036.8,538z"/><path d="M457.1,629.3c2.8,11.5,7.5,22.3,11.4,33.4c7.2,20.9,14.9,41.6,22.4,62.3c15.3,42.5,30.6,85,45.8,127.5   c10.4,29.1,20.8,58.2,31.1,87.3c10.7,30,21.5,60,32.3,90c0.5,1.4,1.3,2.7,1.9,4c-20.2,1.4-40.4,3.3-60.8,3.3   c-92.1,0-177.5-23.7-256.5-70.8c-33.7-20.1-64.4-44.2-92.5-71.6c-0.8-0.8-1.5-1.7-2.3-2.6c1.2-1.4,2.3-2.8,3.6-4.1   c15.1-15.1,29.9-30.4,45.3-45.2c57.4-55.4,112.7-112.8,169.8-168.6c14.5-14.2,28.8-28.6,43.4-42.7   C453.4,630.1,454.7,628.5,457.1,629.3z" fill="#262626"/><path d="M1036.8,538c-25.1-21-50.2-41.9-75.2-62.9c-28.3-23.6-56.5-47.2-84.8-70.8c-0.9-0.8-1.9-1.4-3.1-1.2   c-4.6-1-7-4.9-10.2-7.6c-32.1-26.9-75.2-32.4-112.2-13c-31.7,16.6-49.9,43.4-54.6,78.9c-1.1,8.4-0.9,17,0.3,25.4   c0.6,3.9-0.4,7.1-2.4,10.4c-13.7,22.9-27.5,45.7-41.2,68.6c-0.4,0.7-1,1.4-1.3,2.1c-2.7,6.5-6.5,9-14.4,8.8   c-15.2-0.4-29.6,4.2-42.1,13.4c-3.6,2.6-7.1,3-11.2,1.8c-21.4-6.3-42.9-12.3-64.4-18.5c-2.1-0.6-5.2-0.2-5.9-3.4   c4.7-4.9,9.4-9.9,14.2-14.7c15.8-15.8,31.3-31.8,47.4-47.3c57.4-55.4,112.6-113,169.8-168.7c48.8-47.5,96.4-96.2,144.9-144.1   c1.2-1.2,2.5-2.2,3.8-3.3c22.4,22.2,42.1,46.7,59.6,72.8c33.7,50.3,57.3,105.1,71,164.1c6.1,26.5,10.1,53.4,11.5,80.7   C1036.6,519.1,1037.1,528.5,1036.8,538z" fill="#262626"/><path d="M514,570c14.5,4.3,29.1,8.7,43.7,13c9.7,2.8,19.5,5.3,29.1,8.3c2.5,0.8,4.3,0.6,6.4-0.9   c15-11,31.8-16.1,50.4-14.5c2.1,0.2,2.9-0.9,3.8-2.4c15.8-26.5,31.7-52.9,47.6-79.4c1.1-1.9,1.3-3.6,1-5.7   c-10-66.3,44.3-124.1,111.3-118.1c24.4,2.2,45.3,12.3,62.9,29.4c1.2,1.1,2.4,2.3,3.6,3.4c12,14.2,21.1,29.8,24.7,48.2   c11.9,61.3-27.7,112.2-80.9,122.5c-8.4,1.6-15.6,4.5-22.6,9.2c-26.8,18-53.8,35.6-80.7,53.2c-2.7,1.7-3.6,3.4-3.5,6.7   c0.9,30.2-21.4,59.3-52,66.9c-40.8,10.1-78.5-9.7-90.4-47.4c-0.7-2.1-2-2.5-3.5-2.9c-35.6-10.2-71.1-20.3-106.7-30.5   c-0.3-0.1-0.7,0-1,0c-0.1-0.2-0.1-0.5-0.1-0.8c-0.7-2.9,1.8-4,3.3-5.6c15.4-15.6,31-31,46.5-46.5c1.9-1.9,3.7-3.8,5.2-6   C512.7,570.1,513.3,570,514,570z" fill="#DCDCDC"/><path d="M512,570.1c1.5,2.7-1.2,3.5-2.4,4.7c-16.3,16.5-32.8,32.8-49.1,49.3c-1.3,1.3-2.4,2.7-3.5,4.1   c-15.4-3.4-30.4-8.4-45.5-12.6c-34.8-9.8-69.6-19.8-104.4-29.8c-3-0.9-4.8-0.2-7.1,1.5c-32.3,24.7-79.9,18.5-104.4-13.4   c-28.1-36.7-10.6-89.3,34.7-104.6c38.7-13,79.4,6.3,93.5,44.5c1,2.7,2.7,3,4.7,3.5c52.2,14.9,104.3,29.9,156.5,44.8   C493.9,564.7,503,567.4,512,570.1z" fill="#FEFEFE"/><path d="M797.6,539.4c-37,0-66.6-29.6-66.6-66.6c0-36.7,30.2-66.8,66.7-66.7c36.9,0.2,66.4,29.9,66.4,66.8   C864.1,510.1,834.7,539.4,797.6,539.4z" fill="#262626"/><path d="M625.2,601.5c25.4-6,49.5,6.1,57.3,28.8c7.2,20.8-2.9,43.6-23.5,53.3c-20.3,9.5-48,3.3-58.4-13.8   c9.3,2.6,17.9,5,26.5,7.4c19.4,5.5,37.6-4,44.1-22.9c6.6-19.4-3.7-39.5-23.2-45.5c-6.8-2.1-13.6-3.9-20.5-5.9   C626.6,602.7,625.6,602.8,625.2,601.5z" fill="#262626"/><path d="M270.5,575.3c-23.8,8.1-49.5-2.6-59.3-24.2c-9-19.9-0.9-43.6,18.8-55c20-11.6,48.3-6.8,61,10.6   c-9.7-2.8-19-5.4-28.4-8.1c-20.1-5.7-39.2,4.6-44.9,24.5c-5.6,19.3,5.2,38.3,25.1,44.2C251.8,570,260.8,572.5,270.5,575.3z" fill="#353535"/><path d="M852.3,473.4c-0.2,30-25,54.7-54.6,54.4c-29.9-0.3-54.1-25.1-54-55c0.1-30.7,26.6-54.8,55.9-54   C828.4,419.7,852.5,444.1,852.3,473.4z" fill="#DCDCDC"/></g></svg>
