<?xml version="1.0" encoding="iso-8859-1"?>
<!-- Generator: Adobe Illustrator 16.0.0, SVG Export Plug-In . SVG Version: 6.00 Build 0)  -->
<!DOCTYPE svg PUBLIC "-//W3C//DTD SVG 1.1//EN" "http://www.w3.org/Graphics/SVG/1.1/DTD/svg11.dtd">
<svg version="1.1" id="Capa_1" xmlns="http://www.w3.org/2000/svg" xmlns:xlink="http://www.w3.org/1999/xlink" x="0px" y="0px"
	 viewBox="0 0 533.333 533.334" style="enable-background:new 0 0 533.333 533.334;"
	 xml:space="preserve">
<g>
	<path d="M0,83.333V450h533.333V83.333H0z M200,316.667V250h133.333v66.667H200z M333.333,350v66.667H200V350H333.333z M333.333,150
		v66.667H200V150H333.333z M166.667,150v66.667H33.333V150H166.667z M33.333,250h133.333v66.667H33.333V250z M366.667,250H500
		v66.667H366.667V250z M366.667,216.667V150H500v66.667H366.667z M33.333,350h133.333v66.667H33.333V350z M366.667,416.667V350H500
		v66.667H366.667z"/>
</g>
<g>
</g>
<g>
</g>
<g>
</g>
<g>
</g>
<g>
</g>
<g>
</g>
<g>
</g>
<g>
</g>
<g>
</g>
<g>
</g>
<g>
</g>
<g>
</g>
<g>
</g>
<g>
</g>
<g>
</g>
</svg>
