<?xml version="1.0" standalone="no"?>
<!DOCTYPE svg PUBLIC "-//W3C//DTD SVG 20010904//EN"
 "http://www.w3.org/TR/2001/REC-SVG-20010904/DTD/svg10.dtd">
<svg version="1.0" xmlns="http://www.w3.org/2000/svg"
 viewBox="0 0 476.000000 476.000000"
 preserveAspectRatio="xMidYMid meet">
<metadata>
Created by potrace 1.15, written by Peter Selinger 2001-2017
</metadata>
<g transform="translate(0.000000,476.000000) scale(0.100000,-0.100000)"
fill="#424242" stroke="none">
<path d="M2065 4745 c-538 -76 -996 -304 -1375 -684 -350 -350 -572 -780 -662
-1278 -20 -113 -23 -159 -23 -403 0 -244 3 -290 23 -403 90 -500 313 -929 667
-1282 353 -354 782 -577 1282 -667 113 -20 159 -23 403 -23 244 0 290 3 403
23 500 90 929 313 1282 667 354 353 577 782 667 1282 20 113 23 159 23 403 0
244 -3 290 -23 403 -90 500 -313 929 -667 1282 -352 353 -784 577 -1280 666
-156 28 -564 36 -720 14z m1024 -1182 c11 -43 70 -262 129 -487 l109 -408 -84
-145 -84 -144 82 -142 c46 -78 82 -149 82 -157 -2 -19 -253 -953 -257 -958 -3
-2 -221 54 -487 125 l-482 129 -81 142 -81 141 -170 1 -170 0 -352 352 c-194
194 -353 357 -353 363 0 5 159 169 352 362 l353 353 166 0 167 0 82 143 c45
78 84 143 85 145 3 4 945 259 961 261 7 0 21 -34 33 -76z"/>
<path d="M2295 3119 l-330 -89 -255 -255 -255 -255 400 0 401 0 194 337 c107
185 197 340 198 345 6 14 -12 9 -353 -83z"/>
<path d="M2704 2725 l-201 -347 174 -301 c96 -166 186 -321 200 -345 13 -24
26 -42 28 -40 2 2 44 157 95 345 l91 342 -82 303 c-45 167 -87 322 -93 346
l-11 44 -201 -347z"/>
<path d="M1708 1977 l254 -254 341 -91 c188 -50 343 -89 346 -87 2 2 -84 156
-191 342 l-195 338 -404 3 -404 2 253 -253z"/>
</g>
</svg>
