<?xml version="1.0"?>
<svg xmlns="http://www.w3.org/2000/svg" xmlns:xlink="http://www.w3.org/1999/xlink" version="1.1" viewBox="0 0 252 252"><g transform=""><g fill="none" fill-rule="nonzero" stroke="none" stroke-width="1" stroke-linecap="butt" stroke-linejoin="miter" stroke-miterlimit="10" stroke-dasharray="" stroke-dashoffset="0" font-family="none" font-weight="none" font-size="none" text-anchor="none" style="mix-blend-mode: normal"><path d="M0,252v-252h252v252z" fill="none"/><path d="M126,252c-69.58788,0 -126,-56.41212 -126,-126v0c0,-69.58788 56.41212,-126 126,-126v0c69.58788,0 126,56.41212 126,126v0c0,69.58788 -56.41212,126 -126,126z" fill="#ffffff"/><g fill="#000000"><g id="surface1"><path d="M207.7473,126.88656l12.08222,-20.46614c0.4853,-1.0208 0.55223,-2.1922 0.18408,-3.24647l-23.93016,-68.544c-0.73631,-2.0918 -2.92852,-3.27994 -5.05378,-2.76117l-70.33458,17.136c-1.33875,0.33469 -2.44322,1.28855 -2.96198,2.57709l-7.48027,18.72577h-22.80895c-1.18814,0 -2.34281,0.50203 -3.14606,1.37222l-51.408,55.692c-1.58977,1.72364 -1.50609,4.40114 0.18408,6.00764l53.91815,51.408c0.78652,0.76978 1.85752,1.18814 2.94525,1.18814h24.5828l7.497,18.72577c0.55223,1.38895 1.79057,2.37628 3.24647,2.6273l74.80266,12.852c0.23428,0.0502 0.4853,0.06694 0.71957,0.06694c1.99139,0 3.7485,-1.37222 4.1836,-3.36361l15.17808,-69.53133c0.23428,-1.071 0.0502,-2.1922 -0.5355,-3.14606zM110.25283,70.30764l60.37763,-11.06142l-31.77858,62.46942h-72.10842zM114.53683,185.97564l-47.79338,-47.124h72.10842l37.485,56.41158zM191.91658,185.54055l-35.9287,-55.25691l31.41042,-62.46942l20.349,59.08908z"/></g></g><path d="" fill="none"/><path d="" fill="none"/><path d="M126,252c-69.58788,0 -126,-56.41212 -126,-126v0c0,-69.58788 56.41212,-126 126,-126v0c69.58788,0 126,56.41212 126,126v0c0,69.58788 -56.41212,126 -126,126z" fill="none"/><path d="M126,246.96c-66.80436,0 -120.96,-54.15564 -120.96,-120.96v0c0,-66.80436 54.15564,-120.96 120.96,-120.96h0c66.80436,0 120.96,54.15564 120.96,120.96v0c0,66.80436 -54.15564,120.96 -120.96,120.96z" fill="none"/></g></g></svg>
